<?xml version="1.0" encoding="utf-8"?>
<!-- Generator: Adobe Illustrator 22.0.0, SVG Export Plug-In . SVG Version: 6.00 Build 0)  -->
<svg version="1.1" xmlns="http://www.w3.org/2000/svg" xmlns:xlink="http://www.w3.org/1999/xlink" x="0px" y="0px"
	 viewBox="0 0 244 63" style="enable-background:new 0 0 244 63;" xml:space="preserve">
<style type="text/css">
	.st0{display:none;}
	.st1{fill:#4B187C;}
	.st2{fill:#0FA588;}
	.st3{fill:#EF3030;}
</style>
<g id="Camada_1" class="st0">
</g>
<g id="Camada_2">
	<g>
		<g>
			<path d="M6,29.2H1l9.2-7.3v4.1L6,29.2z M10.2,36.5L1,29.2h5l4.2,3.1V36.5z"/>
			<path class="st1" d="M33.7,15.3h2.6v25.8h-2.7V21.7l0.1,1.1l-4.9,14.6h-2l-4.9-14.2l0.1-1.5v19.3h-2.7V15.3h2.6l5.9,17L33.7,15.3
				z"/>
			<path class="st1" d="M41.7,39.9c-0.9-0.9-1.3-2.4-1.3-4.3c0-1.8,0.4-3.2,1.2-4.1c0.8-0.9,2-1.4,3.6-1.4h4.1l0.2,2.9h-4.2
				c-0.7,0-1.3,0.2-1.6,0.6c-0.4,0.4-0.5,1.1-0.5,1.9c0,0.9,0.2,1.6,0.7,2.1s1.2,0.7,2.2,0.7c1.1,0,1.9-0.1,2.4-0.4
				c0.5-0.3,0.8-0.8,0.8-1.4l0.3,2.6c-0.2,0.5-0.6,0.9-0.9,1.2s-0.8,0.6-1.3,0.7c-0.5,0.2-1,0.2-1.6,0.2
				C43.9,41.3,42.5,40.9,41.7,39.9z M49.1,29.4c0-1.2-0.3-2.1-0.8-2.8c-0.5-0.7-1.2-1-2.1-1c-0.6,0-1.1,0.1-1.7,0.3
				c-0.5,0.2-1,0.5-1.5,0.9L41.1,25c0.5-0.8,1.3-1.5,2.1-2c0.9-0.5,1.9-0.7,3-0.7c1.2,0,2.2,0.3,3,0.8c0.8,0.5,1.5,1.3,1.9,2.3
				s0.7,2.3,0.7,3.7v11.8h-2.7V29.4z"/>
			<path class="st1" d="M55,22.6h6.5v3.3H55V22.6z M57.3,39.9c-0.5-0.8-0.8-2-0.8-3.6v-19h2.8v19c0,0.4,0.1,0.8,0.2,1
				c0.1,0.2,0.3,0.4,0.6,0.4h1.4v3.4h-1.6C58.6,41.1,57.8,40.7,57.3,39.9z"/>
			<path class="st1" d="M69.2,41.3c0,0-0.5-0.3-1.4-1s-1.7-1.6-2.1-2.8c-0.5-1.2-0.7-2.7-0.7-4.5V31c0-1.8,0.2-3.4,0.7-4.7
				c0.5-1.3,1.2-2.3,2.1-2.9s2-1,3.3-1c1.2,0,2.2,0.4,3.1,1.2s1.5,1.9,1.9,3.3c0.4,1.5,0.7,3.2,0.7,5.2v1.2h-9.7v-2.9h7
				c-0.1-1.5-0.4-2.7-0.9-3.5c-0.5-0.8-1.2-1.3-2.1-1.3c-1.1,0-1.9,0.4-2.5,1.3c-0.6,0.9-0.9,2.2-0.9,3.8v2.3c0,1.5,0.3,2.7,0.9,3.5
				c0.6,0.8,1.5,1.2,2.7,1.2c0.6,0,1.1-0.1,1.7-0.4c0.6-0.3,1.1-0.7,1.5-1.2l1.8,2.4c-0.7,0.9-1.5,1.6-2.4,2
				c-0.9,0.5-1.8,0.7-2.7,0.7C69.8,41.3,69.2,41.3,69.2,41.3z"/>
			<path class="st1" d="M83.3,33.8c0,1.3,0.3,2.3,0.8,3c0.5,0.7,1.2,1.1,2.2,1.1c0.9,0,1.6-0.3,2.1-0.9c0.5-0.6,0.8-1.5,0.8-2.7
				l0.2,3.8c-0.3,0.9-0.8,1.7-1.4,2.3s-1.5,0.9-2.4,0.9c-1.6,0-2.8-0.7-3.7-2c-0.9-1.3-1.3-3.1-1.3-5.5V22.6h2.8V33.8z M89.1,22.6
				h2.8v18.4h-2.8V22.6z"/>
			<path class="st1" d="M99.9,41.3c0,0-0.4-0.1-1.1-0.3c-0.7-0.2-1.4-0.5-2.1-1s-1.2-1-1.8-1.6l1.7-2.6c0.8,0.8,1.5,1.3,2.3,1.7
				c0.8,0.4,1.5,0.6,2.3,0.6c1.1,0,1.9-0.2,2.5-0.7s0.8-1.1,0.8-2c0-0.6-0.2-1-0.5-1.3c-0.3-0.3-0.7-0.5-1.1-0.6
				c-0.5-0.1-1.1-0.2-1.9-0.3c-0.1,0-0.2,0-0.2,0c-0.1,0-0.2,0-0.2,0c0,0-0.1,0-0.1,0s-0.1,0-0.1,0c-0.9-0.1-1.7-0.3-2.4-0.5
				c-0.6-0.3-1.2-0.7-1.6-1.4s-0.6-1.7-0.6-3c0-1.3,0.2-2.4,0.6-3.2c0.4-0.9,1-1.5,1.8-1.9c0.8-0.4,1.8-0.6,3.1-0.6
				c0.7,0,1.5,0.1,2.1,0.3c0.7,0.2,1.3,0.4,1.9,0.8c0.6,0.3,1.2,0.8,1.8,1.3l-1.7,2.6c-0.7-0.6-1.4-1-2.1-1.3
				c-0.7-0.3-1.4-0.4-2-0.4c-1,0-1.7,0.2-2.2,0.6c-0.5,0.4-0.7,1-0.7,1.9c0,0.5,0.1,0.9,0.4,1.1c0.3,0.2,0.6,0.4,1,0.5
				c0.4,0.1,1,0.2,1.8,0.2c0.1,0,0.1,0,0.2,0c0.1,0,0.1,0,0.2,0c0,0,0.1,0,0.1,0c0,0,0.1,0,0.1,0c1,0.1,1.9,0.3,2.6,0.5
				c0.7,0.3,1.3,0.8,1.8,1.5c0.5,0.8,0.7,1.9,0.7,3.3c0,1.3-0.2,2.4-0.7,3.3s-1.1,1.5-2,2c-0.9,0.4-2,0.7-3.3,0.7
				C100.4,41.3,99.9,41.3,99.9,41.3z"/>
			<path class="st1" d="M120.5,41.3c0,0-0.4-0.1-1.3-0.4s-1.7-0.6-2.4-1.1c-0.7-0.5-1.5-1.1-2.1-1.8l1.8-2.8
				c0.8,0.9,1.6,1.5,2.5,1.9c0.9,0.4,1.9,0.6,3,0.6c1.5,0,2.6-0.3,3.4-1c0.8-0.7,1.2-1.7,1.2-2.9v0c0-0.9-0.2-1.6-0.5-2.1
				c-0.4-0.5-0.8-0.9-1.4-1.2c-0.6-0.3-1.3-0.5-2.2-0.7c0,0-0.1,0-0.1,0s-0.1,0-0.1,0l-0.2-0.1c-1.3-0.3-2.4-0.6-3.3-1
				c-0.8-0.4-1.6-1.1-2.2-2s-0.9-2.4-0.9-4.2v0c0-1.6,0.3-3,0.8-4.1s1.4-2,2.4-2.6c1.1-0.6,2.3-0.9,3.8-0.9c0.7,0,1.4,0.1,2.1,0.3
				c0.7,0.2,1.4,0.5,2.1,0.9c0.7,0.4,1.3,0.9,2,1.5l-1.6,2.9c-0.8-0.7-1.5-1.3-2.3-1.6c-0.8-0.4-1.5-0.5-2.3-0.5
				c-1.4,0-2.4,0.4-3.2,1.1c-0.8,0.7-1.1,1.7-1.1,3v0c0,0.9,0.2,1.6,0.6,2.1c0.4,0.5,0.9,0.9,1.5,1.1c0.6,0.2,1.4,0.5,2.4,0.8
				c0,0,0.1,0,0.1,0c0,0,0.1,0,0.1,0c0,0,0.1,0,0.2,0c0.1,0,0.1,0,0.2,0c1.2,0.3,2.2,0.7,3,1.1s1.5,1.1,2,2.1s0.8,2.3,0.8,4v0
				c0,1.6-0.3,2.9-0.9,4c-0.6,1.1-1.4,2-2.5,2.6c-1.1,0.6-2.4,0.9-4,0.9C121,41.3,120.5,41.3,120.5,41.3z"/>
			<path class="st1" d="M133.6,39.9c-0.9-0.9-1.3-2.4-1.3-4.3c0-1.8,0.4-3.2,1.2-4.1c0.8-0.9,2-1.4,3.6-1.4h4.1l0.2,2.9h-4.2
				c-0.7,0-1.3,0.2-1.6,0.6c-0.4,0.4-0.5,1.1-0.5,1.9c0,0.9,0.2,1.6,0.7,2.1c0.5,0.4,1.2,0.7,2.2,0.7c1.1,0,1.9-0.1,2.4-0.4
				c0.5-0.3,0.8-0.8,0.8-1.4l0.3,2.6c-0.2,0.5-0.6,0.9-0.9,1.2s-0.8,0.6-1.3,0.7c-0.5,0.2-1,0.2-1.6,0.2
				C135.8,41.3,134.5,40.9,133.6,39.9z M141.1,29.4c0-1.2-0.3-2.1-0.8-2.8s-1.2-1-2.1-1c-0.6,0-1.1,0.1-1.7,0.3s-1,0.5-1.5,0.9
				L133,25c0.5-0.8,1.3-1.5,2.1-2c0.9-0.5,1.9-0.7,3-0.7c1.2,0,2.2,0.3,3,0.8c0.8,0.5,1.5,1.3,1.9,2.3s0.7,2.3,0.7,3.7v11.8h-2.7
				V29.4z"/>
			<path class="st1" d="M148.1,22.6h2.8v18.4h-2.8V22.6z M156.7,29.9c0-1.3-0.3-2.3-0.8-3s-1.3-1.1-2.2-1.1c-0.9,0-1.6,0.3-2.1,0.9
				c-0.5,0.6-0.8,1.5-0.8,2.6l-0.3-3.5c0.4-1.1,1-2,1.7-2.6s1.5-0.9,2.4-0.9c1.6,0,2.8,0.7,3.6,2s1.3,3.2,1.3,5.5v11.2h-2.8V29.9z"
				/>
			<path class="st1" d="M162.7,22.6h6.5v3.3h-6.5V22.6z M165,39.9c-0.5-0.8-0.8-2-0.8-3.6v-19h2.8v19c0,0.4,0.1,0.8,0.2,1
				s0.3,0.4,0.6,0.4h1.4v3.4h-1.6C166.4,41.1,165.6,40.7,165,39.9z"/>
			<path class="st1" d="M173.7,39.9c-0.9-0.9-1.3-2.4-1.3-4.3c0-1.8,0.4-3.2,1.2-4.1c0.8-0.9,2-1.4,3.6-1.4h4.1l0.2,2.9h-4.2
				c-0.7,0-1.3,0.2-1.6,0.6c-0.4,0.4-0.5,1.1-0.5,1.9c0,0.9,0.2,1.6,0.7,2.1c0.5,0.4,1.2,0.7,2.2,0.7c1.1,0,1.9-0.1,2.4-0.4
				c0.5-0.3,0.8-0.8,0.8-1.4l0.3,2.6c-0.2,0.5-0.6,0.9-0.9,1.2s-0.8,0.6-1.3,0.7c-0.5,0.2-1,0.2-1.6,0.2
				C175.9,41.3,174.5,40.9,173.7,39.9z M181.1,29.4c0-1.2-0.3-2.1-0.8-2.8s-1.2-1-2.1-1c-0.6,0-1.1,0.1-1.7,0.3s-1,0.5-1.5,0.9
				l-2.1-1.8c0.5-0.8,1.3-1.5,2.1-2c0.9-0.5,1.9-0.7,3-0.7c1.2,0,2.2,0.3,3,0.8c0.8,0.5,1.5,1.3,1.9,2.3s0.7,2.3,0.7,3.7v11.8h-2.7
				V29.4z"/>
			<path class="st1" d="M188.1,22.6h2.8v18.4h-2.8V22.6z M196.8,29.9c0-1.3-0.3-2.3-0.8-3s-1.3-1.1-2.2-1.1c-0.9,0-1.6,0.3-2.1,0.9
				c-0.5,0.6-0.8,1.5-0.8,2.6l-0.3-3.5c0.4-1.1,1-2,1.7-2.6s1.5-0.9,2.4-0.9c1.6,0,2.8,0.7,3.6,2s1.3,3.2,1.3,5.5v11.2h-2.8V29.9z"
				/>
			<path class="st1" d="M204.5,39.9c-0.9-0.9-1.3-2.4-1.3-4.3c0-1.8,0.4-3.2,1.2-4.1c0.8-0.9,2-1.4,3.6-1.4h4.1l0.2,2.9H208
				c-0.7,0-1.3,0.2-1.6,0.6c-0.4,0.4-0.5,1.1-0.5,1.9c0,0.9,0.2,1.6,0.7,2.1c0.5,0.4,1.2,0.7,2.2,0.7c1.1,0,1.9-0.1,2.4-0.4
				c0.5-0.3,0.8-0.8,0.8-1.4l0.3,2.6c-0.2,0.5-0.6,0.9-0.9,1.2s-0.8,0.6-1.3,0.7c-0.5,0.2-1,0.2-1.6,0.2
				C206.7,41.3,205.4,40.9,204.5,39.9z M212,29.4c0-1.2-0.3-2.1-0.8-2.8s-1.2-1-2.1-1c-0.6,0-1.1,0.1-1.7,0.3s-1,0.5-1.5,0.9
				l-2.1-1.8c0.5-0.8,1.3-1.5,2.1-2c0.9-0.5,1.9-0.7,3-0.7c1.2,0,2.2,0.3,3,0.8c0.8,0.5,1.5,1.3,1.9,2.3s0.7,2.3,0.7,3.7v11.8H212
				V29.4z"/>
			<path d="M224.1,46h-2.7l9.3-33.7h2.7L224.1,46z"/>
			<path d="M234.2,22l9.2,7.3h-5l-4.2-3.1V22z M238.4,29.2h5l-9.2,7.3v-4.2L238.4,29.2z"/>
		</g>
	</g>
</g>
<g id="Camada_3">
	<g>
		<g>
			<path class="st2" d="M18.8,44.8h2.1v0.7h-2.1V44.8z M19.3,44.2c0-0.4,0.1-0.7,0.3-0.8c0.2-0.2,0.4-0.3,0.8-0.3h0.6v0.8h-0.6
				c-0.1,0-0.1,0-0.2,0.1s-0.1,0.1-0.1,0.2V49h-0.8V44.2z"/>
			<path class="st2" d="M26.1,47.4c0,0.3,0.1,0.5,0.2,0.7c0.1,0.2,0.4,0.2,0.6,0.2c0.3,0,0.5-0.1,0.6-0.2c0.1-0.1,0.2-0.3,0.2-0.6
				l0.1,0.9c-0.1,0.2-0.2,0.4-0.4,0.5c-0.2,0.1-0.4,0.2-0.7,0.2c-0.5,0-0.8-0.1-1.1-0.4c-0.3-0.3-0.4-0.7-0.4-1.3v-2.6h0.8V47.4z
				 M27.8,44.8h0.8V49h-0.8V44.8z"/>
			<path class="st2" d="M33.3,44.8h0.8V49h-0.8V44.8z M35.9,46.5c0-0.3-0.1-0.5-0.2-0.7c-0.2-0.2-0.4-0.2-0.6-0.2
				c-0.3,0-0.5,0.1-0.6,0.2c-0.1,0.1-0.2,0.3-0.2,0.6l-0.1-0.8c0.1-0.3,0.3-0.4,0.5-0.6c0.2-0.1,0.4-0.2,0.7-0.2
				c0.5,0,0.8,0.1,1.1,0.4c0.3,0.3,0.4,0.7,0.4,1.3V49h-0.8V46.5z"/>
			<path class="st2" d="M42.6,49.1c0,0-0.1-0.1-0.4-0.2c-0.3-0.1-0.5-0.4-0.6-0.6c-0.1-0.3-0.2-0.6-0.2-1v-0.7c0-0.4,0.1-0.7,0.2-1
				c0.1-0.3,0.4-0.5,0.6-0.6s0.6-0.2,1-0.2c0.2,0,0.4,0,0.6,0.1c0.2,0.1,0.4,0.1,0.5,0.2c0.2,0.1,0.3,0.2,0.4,0.4l-0.6,0.5
				c-0.1-0.1-0.3-0.2-0.4-0.3c-0.2-0.1-0.3-0.1-0.5-0.1c-0.3,0-0.6,0.1-0.7,0.3c-0.2,0.2-0.3,0.4-0.3,0.8v0.7c0,0.3,0.1,0.6,0.3,0.8
				c0.2,0.2,0.4,0.3,0.7,0.3c0.2,0,0.3,0,0.5-0.1c0.2-0.1,0.3-0.2,0.4-0.3l0.6,0.6c-0.1,0.1-0.2,0.3-0.4,0.4
				c-0.2,0.1-0.3,0.2-0.5,0.2c-0.2,0.1-0.4,0.1-0.6,0.1C42.8,49.1,42.6,49.1,42.6,49.1z"/>
			<path class="st2" d="M48.7,44.8h1.9v0.7h-1.9V44.8z M49.4,48.7c-0.2-0.2-0.2-0.5-0.2-0.8v-4.3H50v4.3c0,0.1,0,0.2,0.1,0.2
				c0,0.1,0.1,0.1,0.2,0.1h0.4V49h-0.5C49.8,49,49.5,48.9,49.4,48.7z"/>
			<path class="st2" d="M55.2,43.1H56v0.8h-0.8V43.1z M55.2,44.8H56V49h-0.8V44.8z"/>
			<path class="st2" d="M61.4,48.8c-0.3-0.1-0.5-0.4-0.6-0.6s-0.2-0.6-0.2-1v-0.7c0-0.4,0.1-0.7,0.2-1s0.3-0.5,0.6-0.6
				s0.6-0.2,0.9-0.2c0.4,0,0.7,0.1,0.9,0.2c0.3,0.1,0.5,0.3,0.6,0.6c0.1,0.3,0.2,0.6,0.2,1v0.7c0,0.4-0.1,0.7-0.2,1
				c-0.1,0.3-0.3,0.5-0.6,0.6c-0.3,0.1-0.6,0.2-0.9,0.2C62,49.1,61.7,49,61.4,48.8z M63.1,48c0.2-0.2,0.2-0.4,0.2-0.8v-0.7
				c0-0.3-0.1-0.6-0.2-0.8c-0.2-0.2-0.4-0.3-0.7-0.3s-0.5,0.1-0.7,0.3s-0.2,0.4-0.2,0.8v0.7c0,0.3,0.1,0.6,0.2,0.8s0.4,0.3,0.7,0.3
				S62.9,48.2,63.1,48z"/>
			<path class="st2" d="M68.8,44.8h0.8V49h-0.8V44.8z M71.3,46.5c0-0.3-0.1-0.5-0.2-0.7s-0.4-0.2-0.6-0.2c-0.3,0-0.5,0.1-0.6,0.2
				s-0.2,0.3-0.2,0.6l-0.1-0.8c0.1-0.3,0.3-0.4,0.5-0.6c0.2-0.1,0.4-0.2,0.7-0.2c0.5,0,0.8,0.1,1.1,0.4c0.3,0.3,0.4,0.7,0.4,1.3V49
				h-0.8V46.5z"/>
			<path class="st3" d="M82.3,48.9c-0.2-0.1-0.4-0.3-0.5-0.6c-0.1-0.3-0.2-0.6-0.2-0.9v-0.9c0-0.4,0.1-0.7,0.2-0.9
				c0.1-0.3,0.3-0.5,0.5-0.6c0.2-0.1,0.5-0.2,0.8-0.2c0.2,0,0.5,0.1,0.7,0.2s0.4,0.3,0.5,0.5l-0.1,0.9c0-0.2,0-0.3-0.1-0.5
				c-0.1-0.1-0.2-0.2-0.3-0.3c-0.1-0.1-0.3-0.1-0.4-0.1c-0.3,0-0.5,0.1-0.6,0.3c-0.1,0.2-0.2,0.4-0.2,0.7v0.9c0,0.3,0.1,0.5,0.2,0.7
				c0.2,0.2,0.4,0.2,0.6,0.2c0.2,0,0.3,0,0.4-0.1c0.1-0.1,0.2-0.2,0.3-0.3c0.1-0.1,0.1-0.3,0.1-0.5l0.1,0.9
				c-0.1,0.2-0.2,0.4-0.4,0.5s-0.4,0.2-0.7,0.2C82.8,49.1,82.5,49,82.3,48.9z M84.1,43.1H85V49h-0.8V43.1z"/>
			<path class="st3" d="M90.8,49.1c0,0-0.1-0.1-0.4-0.2c-0.3-0.1-0.5-0.4-0.6-0.6c-0.1-0.3-0.2-0.6-0.2-1v-0.5
				c0-0.4,0.1-0.8,0.2-1.1c0.1-0.3,0.3-0.5,0.6-0.7c0.3-0.2,0.6-0.2,1-0.2c0.4,0,0.7,0.1,0.9,0.3c0.2,0.2,0.4,0.4,0.6,0.8
				C93,46.1,93,46.5,93,47v0.3h-2.8v-0.7h2.1c0-0.3-0.1-0.6-0.3-0.8c-0.2-0.2-0.4-0.3-0.6-0.3c-0.3,0-0.6,0.1-0.7,0.3
				s-0.3,0.5-0.3,0.9v0.5c0,0.3,0.1,0.6,0.3,0.8s0.4,0.3,0.8,0.3c0.2,0,0.3,0,0.5-0.1c0.2-0.1,0.3-0.2,0.4-0.3l0.5,0.5
				c-0.2,0.2-0.4,0.4-0.7,0.5c-0.3,0.1-0.5,0.2-0.8,0.2C91,49.1,90.8,49.1,90.8,49.1z"/>
			<path class="st3" d="M98.7,49.1c0,0-0.1,0-0.3-0.1c-0.2,0-0.4-0.1-0.6-0.2c-0.2-0.1-0.4-0.2-0.5-0.4l0.5-0.6
				c0.2,0.2,0.5,0.3,0.7,0.4c0.2,0.1,0.4,0.1,0.7,0.1c0.3,0,0.6-0.1,0.7-0.2c0.2-0.1,0.2-0.3,0.2-0.5c0-0.1,0-0.2-0.1-0.3
				c-0.1-0.1-0.2-0.1-0.3-0.1c-0.1,0-0.3,0-0.6-0.1c0,0,0,0-0.1,0c0,0,0,0-0.1,0c0,0,0,0,0,0c0,0,0,0,0,0c-0.3,0-0.5-0.1-0.7-0.1
				c-0.2-0.1-0.3-0.2-0.5-0.3c-0.1-0.2-0.2-0.4-0.2-0.7c0-0.3,0.1-0.5,0.2-0.7c0.1-0.2,0.3-0.3,0.5-0.4c0.2-0.1,0.5-0.1,0.9-0.1
				c0.2,0,0.4,0,0.6,0.1c0.2,0,0.4,0.1,0.6,0.2c0.2,0.1,0.4,0.2,0.5,0.3l-0.5,0.6c-0.2-0.1-0.4-0.2-0.6-0.3s-0.4-0.1-0.6-0.1
				c-0.3,0-0.5,0-0.6,0.1s-0.2,0.2-0.2,0.4c0,0.1,0,0.2,0.1,0.3c0.1,0.1,0.2,0.1,0.3,0.1c0.1,0,0.3,0,0.5,0c0,0,0,0,0.1,0s0,0,0.1,0
				c0,0,0,0,0,0c0,0,0,0,0,0c0.3,0,0.5,0.1,0.8,0.1c0.2,0.1,0.4,0.2,0.5,0.4c0.1,0.2,0.2,0.4,0.2,0.8c0,0.3-0.1,0.6-0.2,0.8
				s-0.3,0.3-0.6,0.4c-0.3,0.1-0.6,0.1-1,0.1C98.9,49.1,98.7,49.1,98.7,49.1z"/>
			<path class="st3" d="M106.5,49.1c0,0-0.1-0.1-0.4-0.2c-0.3-0.1-0.5-0.4-0.6-0.6c-0.1-0.3-0.2-0.6-0.2-1v-0.5
				c0-0.4,0.1-0.8,0.2-1.1c0.1-0.3,0.3-0.5,0.6-0.7c0.3-0.2,0.6-0.2,1-0.2c0.4,0,0.7,0.1,0.9,0.3c0.2,0.2,0.4,0.4,0.6,0.8
				c0.1,0.3,0.2,0.7,0.2,1.2v0.3h-2.8v-0.7h2.1c0-0.3-0.1-0.6-0.3-0.8c-0.2-0.2-0.4-0.3-0.6-0.3c-0.3,0-0.6,0.1-0.7,0.3
				s-0.3,0.5-0.3,0.9v0.5c0,0.3,0.1,0.6,0.3,0.8s0.4,0.3,0.8,0.3c0.2,0,0.3,0,0.5-0.1c0.2-0.1,0.3-0.2,0.4-0.3l0.5,0.5
				c-0.2,0.2-0.4,0.4-0.7,0.5c-0.3,0.1-0.5,0.2-0.8,0.2C106.7,49.1,106.5,49.1,106.5,49.1z"/>
			<path class="st3" d="M113.3,44.8h0.8V49h-0.8V44.8z M115.9,46.5c0-0.3-0.1-0.5-0.2-0.7s-0.4-0.2-0.6-0.2c-0.3,0-0.5,0.1-0.6,0.2
				s-0.2,0.3-0.2,0.6l-0.1-0.8c0.1-0.3,0.3-0.4,0.5-0.6c0.2-0.1,0.4-0.2,0.7-0.2c0.5,0,0.8,0.1,1.1,0.4c0.3,0.3,0.4,0.7,0.4,1.3V49
				h-0.8V46.5z"/>
			<path class="st3" d="M123.9,44.8h0.9l-1.6,4.2h-0.6l-1.6-4.2h0.9l1,3L123.9,44.8z"/>
			<path class="st3" d="M129.7,48.8c-0.3-0.1-0.5-0.4-0.6-0.6s-0.2-0.6-0.2-1v-0.7c0-0.4,0.1-0.7,0.2-1s0.3-0.5,0.6-0.6
				s0.6-0.2,0.9-0.2c0.4,0,0.7,0.1,0.9,0.2c0.3,0.1,0.5,0.3,0.6,0.6c0.1,0.3,0.2,0.6,0.2,1v0.7c0,0.4-0.1,0.7-0.2,1
				c-0.1,0.3-0.3,0.5-0.6,0.6c-0.3,0.1-0.6,0.2-0.9,0.2C130.3,49.1,130,49,129.7,48.8z M131.3,48c0.2-0.2,0.2-0.4,0.2-0.8v-0.7
				c0-0.3-0.1-0.6-0.2-0.8c-0.2-0.2-0.4-0.3-0.7-0.3s-0.5,0.1-0.7,0.3s-0.2,0.4-0.2,0.8v0.7c0,0.3,0.1,0.6,0.2,0.8s0.4,0.3,0.7,0.3
				S131.2,48.2,131.3,48z"/>
			<path class="st3" d="M137.9,47.9c0,0.1,0,0.2,0.1,0.2c0,0.1,0.1,0.1,0.2,0.1h0.4V49H138c-0.3,0-0.6-0.1-0.7-0.3
				c-0.2-0.2-0.3-0.5-0.3-0.8v-4.8h0.8V47.9z"/>
			<path class="st3" d="M145.4,44.8h0.9l-1.6,4.2H144l-1.6-4.2h0.9l1,3L145.4,44.8z"/>
			<path class="st3" d="M151.7,49.1c0,0-0.1-0.1-0.4-0.2c-0.3-0.1-0.5-0.4-0.6-0.6c-0.1-0.3-0.2-0.6-0.2-1v-0.5
				c0-0.4,0.1-0.8,0.2-1.1c0.1-0.3,0.3-0.5,0.6-0.7c0.3-0.2,0.6-0.2,1-0.2c0.4,0,0.7,0.1,0.9,0.3c0.2,0.2,0.4,0.4,0.6,0.8
				c0.1,0.3,0.2,0.7,0.2,1.2v0.3H151v-0.7h2.1c0-0.3-0.1-0.6-0.3-0.8c-0.2-0.2-0.4-0.3-0.6-0.3c-0.3,0-0.6,0.1-0.7,0.3
				s-0.3,0.5-0.3,0.9v0.5c0,0.3,0.1,0.6,0.3,0.8s0.4,0.3,0.8,0.3c0.2,0,0.3,0,0.5-0.1c0.2-0.1,0.3-0.2,0.4-0.3l0.5,0.5
				c-0.2,0.2-0.4,0.4-0.7,0.5c-0.3,0.1-0.5,0.2-0.8,0.2C151.9,49.1,151.7,49.1,151.7,49.1z"/>
			<path class="st3" d="M159,48.9c-0.2-0.1-0.4-0.3-0.5-0.6c-0.1-0.3-0.2-0.6-0.2-0.9v-0.9c0-0.4,0.1-0.7,0.2-0.9
				c0.1-0.3,0.3-0.5,0.5-0.6c0.2-0.1,0.5-0.2,0.8-0.2c0.2,0,0.5,0.1,0.7,0.2s0.4,0.3,0.5,0.5l-0.1,0.9c0-0.2,0-0.3-0.1-0.5
				c-0.1-0.1-0.2-0.2-0.3-0.3c-0.1-0.1-0.3-0.1-0.4-0.1c-0.3,0-0.5,0.1-0.6,0.3c-0.1,0.2-0.2,0.4-0.2,0.7v0.9c0,0.3,0.1,0.5,0.2,0.7
				c0.2,0.2,0.4,0.2,0.6,0.2c0.2,0,0.3,0,0.4-0.1c0.1-0.1,0.2-0.2,0.3-0.3c0.1-0.1,0.1-0.3,0.1-0.5l0.1,0.9
				c-0.1,0.2-0.2,0.4-0.4,0.5s-0.4,0.2-0.7,0.2C159.5,49.1,159.2,49,159,48.9z M160.8,43.1h0.8V49h-0.8V43.1z"/>
			<path class="st3" d="M167.1,48.8c-0.3-0.1-0.5-0.4-0.6-0.6s-0.2-0.6-0.2-1v-0.7c0-0.4,0.1-0.7,0.2-1s0.3-0.5,0.6-0.6
				s0.6-0.2,0.9-0.2c0.4,0,0.7,0.1,0.9,0.2c0.3,0.1,0.5,0.3,0.6,0.6c0.1,0.3,0.2,0.6,0.2,1v0.7c0,0.4-0.1,0.7-0.2,1
				c-0.1,0.3-0.3,0.5-0.6,0.6c-0.3,0.1-0.6,0.2-0.9,0.2C167.6,49.1,167.3,49,167.1,48.8z M168.7,48c0.2-0.2,0.2-0.4,0.2-0.8v-0.7
				c0-0.3-0.1-0.6-0.2-0.8c-0.2-0.2-0.4-0.3-0.7-0.3s-0.5,0.1-0.7,0.3s-0.2,0.4-0.2,0.8v0.7c0,0.3,0.1,0.6,0.2,0.8s0.4,0.3,0.7,0.3
				S168.5,48.2,168.7,48z"/>
			<path class="st3" d="M174.4,44.8h0.8V49h-0.8V44.8z M176.4,45.6c-0.1,0-0.2-0.1-0.4-0.1c-0.3,0-0.5,0.1-0.6,0.2s-0.2,0.3-0.2,0.6
				l-0.1-0.8c0.1-0.3,0.3-0.4,0.5-0.6c0.2-0.1,0.4-0.2,0.7-0.2c0.2,0,0.4,0,0.5,0.1c0.2,0.1,0.3,0.1,0.4,0.2l-0.5,0.7
				C176.6,45.7,176.5,45.6,176.4,45.6z"/>
			<path class="st3" d="M184,43.1h0.6l1.2,4.6l1-4.6h0.9l-1.4,5.9h-0.8l-1.1-4.1l-1.1,4.1h-0.8l-1.4-5.9h0.9l1,4.6L184,43.1z"/>
			<path class="st3" d="M193,49.1c0,0-0.1-0.1-0.4-0.2c-0.3-0.1-0.5-0.4-0.6-0.6c-0.1-0.3-0.2-0.6-0.2-1v-0.5c0-0.4,0.1-0.8,0.2-1.1
				c0.1-0.3,0.3-0.5,0.6-0.7c0.3-0.2,0.6-0.2,1-0.2c0.4,0,0.7,0.1,0.9,0.3c0.2,0.2,0.4,0.4,0.6,0.8c0.1,0.3,0.2,0.7,0.2,1.2v0.3
				h-2.8v-0.7h2.1c0-0.3-0.1-0.6-0.3-0.8c-0.2-0.2-0.4-0.3-0.6-0.3c-0.3,0-0.6,0.1-0.7,0.3s-0.3,0.5-0.3,0.9v0.5
				c0,0.3,0.1,0.6,0.3,0.8s0.4,0.3,0.8,0.3c0.2,0,0.3,0,0.5-0.1c0.2-0.1,0.3-0.2,0.4-0.3l0.5,0.5c-0.2,0.2-0.4,0.4-0.7,0.5
				c-0.3,0.1-0.5,0.2-0.8,0.2C193.2,49.1,193,49.1,193,49.1z"/>
			<path class="st3" d="M199.8,43.1h0.8V49h-0.8V43.1z M201,48.9c-0.2-0.1-0.3-0.3-0.4-0.5l0.1-0.9c0,0.2,0,0.3,0.1,0.5
				c0.1,0.1,0.2,0.2,0.3,0.3c0.1,0.1,0.3,0.1,0.4,0.1c0.3,0,0.5-0.1,0.6-0.3c0.1-0.2,0.2-0.4,0.2-0.7v-0.9c0-0.3-0.1-0.5-0.2-0.7
				c-0.2-0.2-0.4-0.3-0.6-0.3c-0.2,0-0.3,0-0.4,0.1c-0.1,0.1-0.2,0.2-0.3,0.3c-0.1,0.1-0.1,0.3-0.1,0.5l-0.1-0.8
				c0.1-0.2,0.3-0.4,0.5-0.6c0.2-0.1,0.4-0.2,0.7-0.2c0.3,0,0.6,0.1,0.8,0.2c0.2,0.1,0.4,0.3,0.5,0.6c0.1,0.3,0.2,0.6,0.2,0.9v0.9
				c0,0.4-0.1,0.7-0.2,0.9c-0.1,0.3-0.3,0.4-0.5,0.6s-0.5,0.2-0.8,0.2C201.4,49.1,201.2,49,201,48.9z"/>
			<path d="M208.2,48.5c-0.2-0.6-0.4-1.4-0.4-2.1c0-0.8,0.1-1.5,0.4-2.1c0.2-0.6,0.6-1.2,1.1-1.8l0.6,0.5c-0.4,0.5-0.7,1-0.9,1.5
				c-0.2,0.6-0.3,1.2-0.3,1.9c0,0.7,0.1,1.3,0.3,1.9c0.2,0.6,0.5,1.1,0.9,1.5l-0.6,0.5C208.8,49.7,208.5,49.2,208.2,48.5z"/>
			<path d="M213.5,49.8c0.4-0.5,0.7-1,0.9-1.5c0.2-0.6,0.3-1.2,0.3-1.9c0-0.7-0.1-1.3-0.3-1.9c-0.2-0.6-0.5-1.1-0.9-1.5l0.6-0.5
				c0.5,0.5,0.8,1.1,1.1,1.8c0.2,0.6,0.4,1.4,0.4,2.1c0,0.8-0.1,1.5-0.4,2.1c-0.2,0.6-0.6,1.2-1.1,1.8L213.5,49.8z"/>
		</g>
	</g>
</g>
</svg>
